<svg xmlns="http://www.w3.org/2000/svg" viewBox="0 0 156.59 59.47"><defs><style>.cls-1{fill:#eee;}</style></defs><title>Asset 1</title><g id="Layer_2" data-name="Layer 2"><g id="Layer_1-2" data-name="Layer 1"><g id="Layer_2-2" data-name="Layer 2"><g id="Layer_1-2-2" data-name="Layer 1-2"><path class="cls-1" d="M23.11,1H18.92V22h4.19V10.58h4.11V8.14H23.11ZM9.24,19.49H5.05V30.2H23.59V27.73H9.24Zm127.5,4h3.94V.93H120.41V3.41h16.33ZM38.15.33c-10.37,0-10.37,15.16,0,15.16S48.5.33,38.15.33m0,2.34c5.07,0,5.07,10.52,0,10.52s-5.09-10.52,0-10.52M13,4.83h3.79V2.35H10.47V0H6.29V2.35H0V4.83H3.79C-.85,8.41.68,17.37,8.38,17.37s9.2-9,4.58-12.54m-4.58.74c4.75,0,4.75,9.62,0,9.62s-4.79-9.62,0-9.62M93.53,21.94h14.63V30.2h4.18V19.49H93.53ZM112.34,1h-4.18V18.14h4.18V10.58h4.12V8.14h-4.12ZM102.21,4.83H106V2.35H99.71V0H95.52V2.35H89.24V4.83H93c-4.63,3.58-3.11,12.54,4.6,12.54s9.2-9,4.59-12.54m-4.59.74c4.75,0,4.75,9.62,0,9.62s-4.8-9.62,0-9.62M45,16.72c-10.68,0-10.72,14.49,0,14.49s10.66-14.49,0-14.49m0,12.16c-5.23,0-5.23-9.91,0-9.91s5.2,9.91,0,9.91m89.19-3.1V13.09h-3.87V25.78h-2.78V13.09h-3.87V25.78h-4.23v2.48h22.92V25.78ZM52.59,1H48.38V16.6h4.21V12.5h4.13V10H52.59V6.48h4.13V4H52.59Zm27.59,9H78.24V1H74.3V17.64H66.47V3.45h5.78V1h-10V20.13h12v10.1h3.94V12.5h1.94V30.23h3.94V1H80.18Z"/><polygon class="cls-1" points="57.22 43.33 57.22 38.87 54.32 38.87 54.32 53.46 57.22 53.46 57.22 45.06 59.84 45.06 59.84 43.33 57.22 43.33"/><polygon class="cls-1" points="47.6 51.81 44.66 51.81 44.66 58.77 57.93 58.77 57.93 57.02 47.6 57.02 47.6 51.81"/><path class="cls-1" d="M46.77,46a7.36,7.36,0,0,0,2.12,2.55A6.55,6.55,0,0,0,52,50.13h0l1.44-1.28h-.2a5.89,5.89,0,0,1-3.42-2.35,7.89,7.89,0,0,1-1.58-5.09V38.87h-3v2.51a8,8,0,0,1-1.58,5.09,5.89,5.89,0,0,1-3.42,2.35H40l1.43,1.28h0a6.53,6.53,0,0,0,3.13-1.58A6.77,6.77,0,0,0,46.77,46Z"/><path class="cls-1" d="M31.34,48H39v1.55H21V48h7.6V45.77H23.37v-6.9H36.9v1.55H26.11v3.8h11v1.55H31.34ZM30,50.51a5.4,5.4,0,0,1,3.62,1.29,4.13,4.13,0,0,1,.56,5.81,4.23,4.23,0,0,1-.56.56,5.7,5.7,0,0,1-7.24,0,4.11,4.11,0,0,1,0-6.37A5.4,5.4,0,0,1,30,50.51ZM30,52a2,2,0,0,0-1.65.94,3.24,3.24,0,0,0,0,4,1.93,1.93,0,0,0,2.65.64,2,2,0,0,0,.64-.64,3.22,3.22,0,0,0,.7-2,3.28,3.28,0,0,0-.7-2A2,2,0,0,0,30,52Z"/><polygon class="cls-1" points="1.28 50.31 1.28 51.95 8.78 51.95 8.78 58.77 11.59 58.77 11.59 51.95 19.1 51.95 19.1 50.31 1.28 50.31"/><path class="cls-1" d="M16.74,38.87H13.93v2.94H6.45V38.87H3.64v9.5h13.1ZM6.45,46.73V43.46h7.48v3.27Z"/><path class="cls-1" d="M65.33,49.52H61V48H78.75v1.52H74.41v2.24H72.76a4.43,4.43,0,0,1,1.46,1.46,3.71,3.71,0,0,1,.56,2,3.84,3.84,0,0,1-1.44,3,5.48,5.48,0,0,1-6.94,0,3.85,3.85,0,0,1-1.45-3,3.8,3.8,0,0,1,.56-2A4.34,4.34,0,0,1,67,51.76H65.33Zm4.54-11.46a5.57,5.57,0,0,1,3.74,1.3,4,4,0,0,1,0,6.27,6.11,6.11,0,0,1-7.49,0,4,4,0,0,1,0-6.27A5.57,5.57,0,0,1,69.87,38.06Zm0,1.5a2.36,2.36,0,0,0-1.81.89,3,3,0,0,0,0,4.1,2.3,2.3,0,0,0,3.62,0,3,3,0,0,0,0-4.1A2.36,2.36,0,0,0,69.87,39.56Zm0,12.87a1.91,1.91,0,0,0-1.55.87,3.1,3.1,0,0,0-.66,1.91,3,3,0,0,0,.66,1.89,1.84,1.84,0,0,0,2.56.55,1.8,1.8,0,0,0,.55-.55,3,3,0,0,0,.65-1.89,3.15,3.15,0,0,0-.65-1.91A1.94,1.94,0,0,0,69.87,52.43Zm1.86-2.91H68v1.74a5.4,5.4,0,0,1,.9-.23,5.63,5.63,0,0,1,1.92,0,5.4,5.4,0,0,1,.9.23Z"/><path class="cls-1" d="M83.86,58.74V51.19H86.5v2.14h6.77V51.19h2.64v7.55Zm2.64-1.5h6.77V54.83H86.5Z"/><polygon class="cls-1" points="96.05 38.75 93.26 38.75 93.26 50.19 96.05 50.19 96.05 45.16 98.79 45.16 98.79 43.53 96.05 43.53 96.05 38.75"/><path class="cls-1" d="M91.82,39.58H87.64V38H84.85v1.57H80.67v1.65h2.51a4.69,4.69,0,0,0,3.07,8.35c5.1,0,6.12-6,3-8.35h2.52Zm-5.58,8.54c-3.19,0-3.19-6.4,0-6.4S89.41,48.12,86.24,48.12Z"/><path class="cls-1" d="M146.77,49.2v3H144v-3h-4.32V47.71H151.9V49.2Zm-1.12-10.71A4.86,4.86,0,0,1,149,39.72a3.93,3.93,0,0,1,0,6,5.27,5.27,0,0,1-6.75,0,3.78,3.78,0,0,1-1.39-3,3.86,3.86,0,0,1,1.39-3,4.89,4.89,0,0,1,3.4-1.23Zm0,1.55a1.8,1.8,0,0,0-1.44.76,3.31,3.31,0,0,0,0,3.82,1.76,1.76,0,0,0,2.88,0,3.31,3.31,0,0,0,0-3.82,1.78,1.78,0,0,0-1.44-.8Zm7.86,12h-4.32V50.6h4.32V38.88h2.74V54h-2.74Z"/><polygon class="cls-1" points="145.89 52.97 143.05 52.97 143.05 58.74 156.59 58.74 156.59 57.05 145.89 57.05 145.89 52.97"/><polygon class="cls-1" points="122.9 53.12 132.84 53.12 132.84 58.76 135.69 58.76 135.69 51.46 122.9 51.46 122.9 53.12"/><polygon class="cls-1" points="135.69 38.86 132.84 38.86 132.84 50.54 135.69 50.54 135.69 45.4 138.49 45.4 138.49 43.74 135.69 43.74 135.69 38.86"/><path class="cls-1" d="M131.38,39.8h-4.27V38.23h-2.86V39.8H120v1.69h2.57c-3.15,2.43-2.11,8.53,3.13,8.53s6.26-6.1,3.12-8.53h2.58Zm-5.7,8.73c-3.26,0-3.26-6.54,0-6.54S128.91,48.53,125.68,48.53Z"/><polygon class="cls-1" points="113.82 45.02 112.5 45.02 112.5 38.86 109.83 38.86 109.83 50.2 104.5 50.2 104.5 40.55 108.43 40.55 108.43 38.86 101.65 38.86 101.65 51.89 109.83 51.89 109.83 58.76 112.5 58.76 112.5 46.7 113.82 46.7 113.82 58.76 116.5 58.76 116.5 38.86 113.82 38.86 113.82 45.02"/></g></g></g></g></svg>